# xmcd CD database file
#
# Track frame offsets:
#	150
#	28350
#	62360
#	72051
#	91153
#	105632
#	129672
#	161011
#	189705
#	224467
#
# Disc length: 3942 seconds
#
# Revision: 0
# Processed by: cddbd v1.5.2PL0 Copyright (c) Steve Scherf et al.
# Submitted via: CDex 1.51
#
DISCID=8c0f640a
DTITLE=Peter Zoufal - XX+
DYEAR=2003
DGENRE=Jazz
TTITLE0=No More Trouble
TTITLE1=Remember Me
TTITLE2=Weichei
TTITLE3=U-Bahn Linie 2
TTITLE4=Zacks !
TTITLE5=Fellowship Of Swinging Men
TTITLE6=You Gonna Be Sorry
TTITLE7=Blues For Annie and Rosie
TTITLE8=sorry, ist arabisch
TTITLE9=G.U.I.T.A.R. (outtake)
EXTD=YEAR: 2003
EXTT0=
EXTT1=
EXTT2=
EXTT3=
EXTT4=
EXTT5=
EXTT6=
EXTT7=
EXTT8=
EXTT9=
PLAYORDER=
